<svg width="48" height="47" viewBox="0 0 48 47" fill="none" xmlns="http://www.w3.org/2000/svg">
<path d="M47.6523 44.3298C43.9468 37.9267 38.1297 33.4337 31.3703 31.5282C34.6566 29.8577 37.2845 27.1291 38.8302 23.7823C40.376 20.4356 40.7496 16.6657 39.8907 13.0807C39.0318 9.49566 36.9905 6.30436 34.096 4.02139C31.2015 1.73841 27.6224 0.496826 23.9359 0.496826C20.2494 0.496826 16.6703 1.73841 13.7758 4.02139C10.8813 6.30436 8.84003 9.49566 7.98114 13.0807C7.12225 16.6657 7.49581 20.4356 9.04158 23.7823C10.5874 27.1291 13.2152 29.8577 16.5015 31.5282C9.74215 33.4314 3.92496 37.9243 0.219493 44.3298C0.117746 44.4898 0.0494261 44.6688 0.0186445 44.856C-0.012137 45.0431 -0.00474403 45.2346 0.040378 45.4188C0.0855001 45.603 0.167419 45.7762 0.281206 45.9279C0.394994 46.0796 0.538299 46.2068 0.7025 46.3017C0.866701 46.3966 1.0484 46.4573 1.23668 46.4802C1.42496 46.5031 1.61591 46.4876 1.79806 46.4348C1.98021 46.3819 2.14979 46.2928 2.29659 46.1727C2.4434 46.0526 2.56439 45.9041 2.65231 45.736C7.15465 37.9571 15.1093 33.3142 23.9359 33.3142C32.7625 33.3142 40.7172 37.9571 45.2195 45.736C45.3074 45.9041 45.4284 46.0526 45.5752 46.1727C45.722 46.2928 45.8916 46.3819 46.0737 46.4348C46.2559 46.4876 46.4468 46.5031 46.6351 46.4802C46.8234 46.4573 47.0051 46.3966 47.1693 46.3017C47.3335 46.2068 47.4768 46.0796 47.5906 45.9279C47.7044 45.7762 47.7863 45.603 47.8314 45.4188C47.8765 45.2346 47.8839 45.0431 47.8532 44.856C47.8224 44.6688 47.7541 44.4898 47.6523 44.3298ZM10.3421 16.9079C10.3421 14.2193 11.1394 11.5911 12.6331 9.35563C14.1268 7.12015 16.2499 5.37781 18.7338 4.34893C21.2177 3.32005 23.951 3.05085 26.5879 3.57537C29.2248 4.09988 31.647 5.39456 33.5481 7.29568C35.4493 9.1968 36.7439 11.619 37.2685 14.2559C37.793 16.8928 37.5238 19.6261 36.4949 22.11C35.466 24.594 33.7237 26.717 31.4882 28.2107C29.2527 29.7044 26.6245 30.5017 23.9359 30.5017C20.3319 30.4973 16.8768 29.0637 14.3285 26.5154C11.7801 23.967 10.3465 20.5119 10.3421 16.9079Z" fill="black"/>
</svg>
