<svg width="24" height="24" viewBox="0 0 24 24" fill="none" xmlns="http://www.w3.org/2000/svg">
<path d="M6.39999 12L11.2 16L17.6 8.00005M12 0.800049L0.799988 7.20005V8.35205C0.799905 11.7078 1.89301 14.9723 3.91386 17.6514C5.93471 20.3304 8.77329 22.2783 12 23.2C15.2267 22.2783 18.0653 20.3304 20.0861 17.6514C22.107 14.9723 23.2001 11.7078 23.2 8.35205V7.20005L12 0.800049Z" fill="#04D400"/>
<path d="M6.39999 12L11.2 16L17.6 8.00005M12 0.800049L0.799988 7.20005V8.35205C0.799905 11.7078 1.89301 14.9723 3.91386 17.6514C5.93471 20.3304 8.77329 22.2783 12 23.2C15.2267 22.2783 18.0653 20.3304 20.0861 17.6514C22.107 14.9723 23.2001 11.7078 23.2 8.35205V7.20005L12 0.800049Z" stroke="white" stroke-linejoin="round"/>
</svg>
