<svg width="24" height="24" viewBox="0 0 24 24" fill="none" xmlns="http://www.w3.org/2000/svg">
<path d="M21.3975 10.1475L16.8975 14.6475C16.7909 14.7469 16.6498 14.801 16.5041 14.7984C16.3584 14.7958 16.2193 14.7368 16.1163 14.6337C16.0132 14.5307 15.9542 14.3916 15.9516 14.2459C15.949 14.1002 16.0031 13.9591 16.1025 13.8525L19.6416 10.3125H15.4687C13.5975 10.311 11.7789 10.9319 10.2994 12.0776C8.81983 13.2233 7.76344 14.8286 7.29656 16.6406C7.25927 16.7851 7.16611 16.9088 7.03759 16.9846C6.90907 17.0604 6.75571 17.082 6.61125 17.0447C6.46679 17.0074 6.34306 16.9142 6.26729 16.7857C6.19151 16.6572 6.16989 16.5038 6.20719 16.3594C6.73642 14.3058 7.93366 12.4866 9.61038 11.1882C11.2871 9.88977 13.3481 9.18594 15.4687 9.18751H19.6434L16.1025 5.64751C16.0031 5.54088 15.949 5.39984 15.9516 5.25411C15.9542 5.10839 16.0132 4.96935 16.1163 4.86629C16.2193 4.76323 16.3584 4.7042 16.5041 4.70163C16.6498 4.69905 16.7909 4.75315 16.8975 4.85251L21.3975 9.35251C21.5028 9.45798 21.562 9.60094 21.562 9.75001C21.562 9.89907 21.5028 10.042 21.3975 10.1475ZM18 19.6875H3.75C3.70027 19.6875 3.65258 19.6678 3.61742 19.6326C3.58225 19.5974 3.5625 19.5497 3.5625 19.5V8.25001C3.5625 8.10082 3.50324 7.95775 3.39775 7.85226C3.29226 7.74677 3.14918 7.68751 3 7.68751C2.85082 7.68751 2.70774 7.74677 2.60225 7.85226C2.49676 7.95775 2.4375 8.10082 2.4375 8.25001V19.5C2.4375 19.8481 2.57578 20.1819 2.82192 20.4281C3.06806 20.6742 3.4019 20.8125 3.75 20.8125H18C18.1492 20.8125 18.2923 20.7532 18.3977 20.6478C18.5032 20.5423 18.5625 20.3992 18.5625 20.25C18.5625 20.1008 18.5032 19.9577 18.3977 19.8523C18.2923 19.7468 18.1492 19.6875 18 19.6875Z" fill="black"/>
</svg>
