<svg width="24" height="24" viewBox="0 0 24 24" fill="none" xmlns="http://www.w3.org/2000/svg">
<path d="M14.7845 2.255L19.7655 7.236M7.91897 11.464H16.056M7.91897 17.497H16.056M7.91897 14.4805H16.056M5.18197 2.255C4.92182 2.26139 4.67448 2.36925 4.49277 2.55554C4.31107 2.74182 4.20939 2.99177 4.20947 3.252V20.753C4.20952 21.0131 4.31116 21.2629 4.49274 21.4492C4.67431 21.6354 4.92145 21.7434 5.18147 21.75H18.7935C19.0579 21.75 19.3115 21.645 19.4985 21.458C19.6854 21.271 19.7905 21.0174 19.7905 20.753V7.236H15.802C15.5418 7.22948 15.2944 7.12151 15.1127 6.93515C14.931 6.74878 14.8294 6.49878 14.8295 6.2385V2.25L5.18197 2.255Z" stroke="black" stroke-linecap="round" stroke-linejoin="round"/>
</svg>
