<svg width="24" height="24" viewBox="0 0 24 24" fill="none" xmlns="http://www.w3.org/2000/svg">
<path d="M11.962 20C9.9307 20 8.16036 19.3367 6.65103 18.01C5.1417 16.6847 4.26803 15.0147 4.03003 13H5.04103C5.31303 14.72 6.0967 16.15 7.39203 17.29C8.6887 18.43 10.212 19 11.962 19C13.912 19 15.566 18.321 16.924 16.963C18.282 15.605 18.9614 13.9507 18.962 12C18.962 10.05 18.2827 8.39567 16.924 7.037C15.5654 5.67833 13.9114 4.99933 11.962 5C10.9274 5 9.9547 5.21867 9.04403 5.656C8.13403 6.09333 7.3307 6.69533 6.63403 7.462H9.11503V8.462H4.96203V4.308H5.96203V6.696C6.73536 5.84733 7.64136 5.186 8.68003 4.712C9.7187 4.23733 10.8127 4 11.962 4C13.0707 4 14.11 4.20867 15.08 4.626C16.05 5.04333 16.8974 5.61433 17.622 6.339C18.3467 7.06367 18.918 7.91133 19.336 8.882C19.7534 9.852 19.962 10.8913 19.962 12C19.962 13.1087 19.7534 14.148 19.336 15.118C18.9187 16.088 18.3474 16.9357 17.622 17.661C16.8974 18.3857 16.05 18.9567 15.08 19.374C14.11 19.7913 13.0707 20 11.962 20ZM15.165 15.854L11.519 12.208V7H12.519V11.792L15.873 15.146L15.165 15.854Z" fill="#FF0707"/>
</svg>
