<svg width="24" height="24" viewBox="0 0 24 24" fill="none" xmlns="http://www.w3.org/2000/svg">
<path fill-rule="evenodd" clip-rule="evenodd" d="M18.98 9.25299C18.6018 8.29513 18.0309 7.42512 17.3028 6.69683C16.5747 5.96853 15.7048 5.39747 14.747 5.01899C14.5208 5.27576 14.3402 5.56932 14.213 5.88699C15.1086 6.21251 15.922 6.73041 16.5958 7.40423C17.2696 8.07805 17.7875 8.89139 18.113 9.78699C18.4307 9.6598 18.7243 9.4792 18.981 9.25299M12.229 5.50299C10.9248 5.45722 9.63703 5.80508 8.53326 6.5013C7.42948 7.19753 6.56084 8.20987 6.04036 9.4066C5.51988 10.6033 5.37168 11.929 5.61504 13.2111C5.8584 14.4932 6.48205 15.6724 7.40483 16.5952C8.32761 17.518 9.50678 18.1416 10.7889 18.385C12.071 18.6283 13.3967 18.4801 14.5934 17.9597C15.7901 17.4392 16.8025 16.5705 17.4987 15.4668C18.1949 14.363 18.5428 13.0752 18.497 11.771C18.84 11.665 19.167 11.521 19.473 11.347C19.6069 12.8802 19.266 14.4174 18.4963 15.7502C17.7267 17.0829 16.5657 18.1467 15.1709 18.797C13.7761 19.4474 12.2149 19.6529 10.6993 19.3857C9.18363 19.1185 7.78688 18.3915 6.69856 17.3033C5.61023 16.2152 4.88301 14.8185 4.61558 13.3029C4.34814 11.7873 4.55343 10.2262 5.2036 8.83122C5.85376 7.43628 6.91732 6.27513 8.24997 5.50532C9.58262 4.7355 11.1198 4.3943 12.653 4.52799C12.4772 4.83723 12.3351 5.16444 12.229 5.50399" fill="black"/>
<path d="M17 10C18.6569 10 20 8.65685 20 7C20 5.34315 18.6569 4 17 4C15.3431 4 14 5.34315 14 7C14 8.65685 15.3431 10 17 10Z" fill="black"/>
</svg>
